# xmcd
#
# Track frame offsets:
#  210
#  15070
#  34206
#  50019
#  67316
#  76686
#  94211
#  110537
#  118321
#  135043
#  152067
#  165946
#
# Disc length: 2330 seconds
#
# Revision: 0
# Processed by: cddbd v1.5.1PL2 Copyright (c) Steve Scherf et al.
# Submitted via: Collectorz.com_Music_Collector 6.11
#
DISCID=8e09180c
DTITLE=Tété Alhinho - Voz
DYEAR=2002
DGENRE=World
TTITLE0=Scutam Ess Morna
TTITLE1=Funk palina
TTITLE2=Princesa
TTITLE3=mar ê morada di sodadi
TTITLE4=C'lamor
TTITLE5=Rabilona
TTITLE6=Tema
TTITLE7=Variação sobre um tema de Rendall
TTITLE8=Dia qui´m vira mudjer
TTITLE9=Terra verde
TTITLE10=Conversa adiada
TTITLE11=Voz
EXTD=
EXTT0=
EXTT1=
EXTT2=
EXTT3=
EXTT4=
EXTT5=
EXTT6=
EXTT7=
EXTT8=
EXTT9=
EXTT10=
EXTT11=
PLAYORDER=
